<svg xmlns="http://www.w3.org/2000/svg" enable-background="new 0 0 512 512" viewBox="0 0 512 512"><path fill="#5F2FC9" d="M245.912,332.382c-3.431,3.447-3.431,9.038,0,12.484c3.34,3.295,9.13,3.295,12.47-0.029l81.086-81.132c3.431-3.445,3.431-9.038,0-12.484l0.409-0.393c-5.773-4.957-22.853-22.067-81.676-80.906c-3.205-3.098-8.963-3.098-12.289,0.152c-3.371,3.386-3.416,8.947-0.09,12.378l66.183,66.2H17.811c-4.85,0-8.811,3.943-8.811,8.811c0,4.866,3.96,8.811,8.811,8.811l294.166,0.015L245.912,332.382z"/><path fill="#444" d="M480.861,9.849H165.4c-6.167,0-11.985,2.402-16.354,6.8c-4.368,4.368-6.771,10.171-6.771,16.368v114.61c0,4.867,3.945,8.811,8.797,8.811s8.796-3.943,8.796-8.811V27.487h326.524v459.981H159.868V367.31c0-4.866-3.944-8.811-8.796-8.811s-8.797,3.945-8.797,8.811v114.626c0,12.771,10.369,23.17,23.125,23.17h315.46c12.756,0,23.139-10.399,23.139-23.17V33.018C504,20.246,493.617,9.849,480.861,9.849z"/></svg>